<svg width="58" height="57" viewBox="0 0 58 57" fill="none" xmlns="http://www.w3.org/2000/svg">
<g filter="url(#filter0_di_6_101)">
<circle cx="24.5" cy="26.5" r="24.5" fill="white"/>
<circle cx="24.5" cy="26.5" r="24.5" fill="white"/>
<circle cx="24.5" cy="26.5" r="24.5" fill="white"/>
<circle cx="24.5" cy="26.5" r="24" stroke="#E8E8E8"/>
</g>
<g filter="url(#filter1_i_6_101)">
<ellipse cx="24.8712" cy="26.123" rx="15.9621" ry="15.8308" fill="white"/>
<ellipse cx="24.8712" cy="26.123" rx="15.9621" ry="15.8308" fill="white"/>
<ellipse cx="24.8712" cy="26.123" rx="15.9621" ry="15.8308" fill="#EAEAEA"/>
</g>
<g filter="url(#filter2_i_6_101)">
<rect x="13.3635" y="15.5693" width="23.0152" height="21.8615" rx="4" fill="#569B3D"/>
<path d="M25.6168 38.1039C25.2193 38.5489 24.523 38.5489 24.1254 38.1039L22.8237 36.6471C22.248 36.0027 22.7053 34.9808 23.5694 34.9808H26.1729C27.0369 34.9808 27.4943 36.0027 26.9185 36.6471L25.6168 38.1039Z" fill="#569B3D"/>
<path d="M24.1789 13.9717C24.5658 13.6006 25.1765 13.6006 25.5634 13.9717L26.6127 14.9783C27.2629 15.602 26.8214 16.6999 25.9205 16.6999H23.8219C22.9209 16.6999 22.4794 15.602 23.1296 14.9783L24.1789 13.9717Z" fill="#569B3D"/>
</g>
<defs>
<filter id="filter0_di_6_101" x="-3" y="0" width="61" height="57" filterUnits="userSpaceOnUse" color-interpolation-filters="sRGB">
<feFlood flood-opacity="0" result="BackgroundImageFix"/>
<feColorMatrix in="SourceAlpha" type="matrix" values="0 0 0 0 0 0 0 0 0 0 0 0 0 0 0 0 0 0 127 0" result="hardAlpha"/>
<feOffset dx="5" dy="2"/>
<feGaussianBlur stdDeviation="2"/>
<feComposite in2="hardAlpha" operator="out"/>
<feColorMatrix type="matrix" values="0 0 0 0 0 0 0 0 0 0 0 0 0 0 0 0 0 0 0.25 0"/>
<feBlend mode="normal" in2="BackgroundImageFix" result="effect1_dropShadow_6_101"/>
<feBlend mode="normal" in="SourceGraphic" in2="effect1_dropShadow_6_101" result="shape"/>
<feColorMatrix in="SourceAlpha" type="matrix" values="0 0 0 0 0 0 0 0 0 0 0 0 0 0 0 0 0 0 127 0" result="hardAlpha"/>
<feOffset dx="-3"/>
<feGaussianBlur stdDeviation="2.5"/>
<feComposite in2="hardAlpha" operator="arithmetic" k2="-1" k3="1"/>
<feColorMatrix type="matrix" values="0 0 0 0 0 0 0 0 0 0 0 0 0 0 0 0 0 0 0.25 0"/>
<feBlend mode="normal" in2="shape" result="effect2_innerShadow_6_101"/>
</filter>
<filter id="filter1_i_6_101" x="8.90906" y="10.2922" width="31.9242" height="32.6616" filterUnits="userSpaceOnUse" color-interpolation-filters="sRGB">
<feFlood flood-opacity="0" result="BackgroundImageFix"/>
<feBlend mode="normal" in="SourceGraphic" in2="BackgroundImageFix" result="shape"/>
<feColorMatrix in="SourceAlpha" type="matrix" values="0 0 0 0 0 0 0 0 0 0 0 0 0 0 0 0 0 0 127 0" result="hardAlpha"/>
<feOffset dy="1"/>
<feGaussianBlur stdDeviation="2.5"/>
<feComposite in2="hardAlpha" operator="arithmetic" k2="-1" k3="1"/>
<feColorMatrix type="matrix" values="0 0 0 0 0 0 0 0 0 0 0 0 0 0 0 0 0 0 0.25 0"/>
<feBlend mode="normal" in2="shape" result="effect1_innerShadow_6_101"/>
</filter>
<filter id="filter2_i_6_101" x="12.3635" y="13.6934" width="24.0151" height="26.7444" filterUnits="userSpaceOnUse" color-interpolation-filters="sRGB">
<feFlood flood-opacity="0" result="BackgroundImageFix"/>
<feBlend mode="normal" in="SourceGraphic" in2="BackgroundImageFix" result="shape"/>
<feColorMatrix in="SourceAlpha" type="matrix" values="0 0 0 0 0 0 0 0 0 0 0 0 0 0 0 0 0 0 127 0" result="hardAlpha"/>
<feOffset dx="-1" dy="2"/>
<feGaussianBlur stdDeviation="4"/>
<feComposite in2="hardAlpha" operator="arithmetic" k2="-1" k3="1"/>
<feColorMatrix type="matrix" values="0 0 0 0 0 0 0 0 0 0 0 0 0 0 0 0 0 0 0.3 0"/>
<feBlend mode="normal" in2="shape" result="effect1_innerShadow_6_101"/>
</filter>
</defs>
</svg>
